<?xml version="1.0" standalone="no"?>
<!DOCTYPE svg PUBLIC "-//W3C//DTD SVG 20010904//EN"
 "http://www.w3.org/TR/2001/REC-SVG-20010904/DTD/svg10.dtd">
<svg version="1.0" xmlns="http://www.w3.org/2000/svg"
 width="70.000000pt" height="54.000000pt" viewBox="0 0 70.000000 54.000000"
 preserveAspectRatio="xMidYMid meet">

<g transform="translate(0.000000,54.000000) scale(0.100000,-0.100000)"
fill="#000000" stroke="none">
<path d="M281 433 c-28 -32 -51 -61 -51 -64 0 -4 8 -10 17 -14 13 -4 29 5 55
34 l38 40 106 -122 c59 -67 110 -123 114 -125 7 -3 31 220 24 227 -6 6 -104
-41 -104 -49 0 -15 28 -30 44 -24 17 7 22 -12 7 -34 -6 -10 -32 14 -96 87 -49
56 -92 101 -96 101 -4 0 -30 -26 -58 -57z"/>
<path d="M90 400 c0 -11 5 -65 12 -122 l11 -102 54 59 c46 51 51 60 37 68 -11
6 -23 6 -35 -1 -9 -6 -20 -8 -23 -5 -7 7 -8 43 -2 43 3 0 48 -20 101 -45 l97
-45 50 26 c47 24 49 27 35 42 -15 15 -19 15 -52 -1 l-36 -17 -125 59 c-107 52
-124 57 -124 41z"/>
<path d="M40 133 c0 -28 10 -53 21 -53 5 0 9 7 9 15 0 8 5 15 10 15 6 0 10 -7
10 -15 0 -23 17 -18 24 8 11 40 7 53 -9 31 -13 -17 -14 -17 -15 -1 0 9 -4 17
-10 17 -5 0 -10 -8 -10 -17 -1 -16 -2 -16 -15 1 -15 19 -15 19 -15 -1z"/>
<path d="M134 136 c-11 -29 0 -51 26 -51 21 0 25 5 25 30 0 24 -5 31 -23 33
-13 2 -24 -3 -28 -12z m46 -20 c0 -21 -21 -31 -30 -15 -5 7 -6 17 -4 21 9 14
34 9 34 -6z"/>
<path d="M207 144 c-11 -11 -9 -64 3 -64 6 0 10 8 10 18 1 16 1 16 11 0 16
-29 29 -20 29 20 -1 32 -2 35 -13 20 -12 -14 -14 -15 -23 -1 -5 8 -12 11 -17
7z"/>
<path d="M270 114 c0 -33 2 -35 28 -32 49 6 40 67 -10 68 -14 0 -18 -8 -18
-36z m40 -4 c0 -11 -4 -20 -10 -20 -5 0 -10 9 -10 20 0 11 5 20 10 20 6 0 10
-9 10 -20z"/>
<path d="M340 115 c0 -32 3 -35 28 -34 16 1 20 3 10 6 -10 2 -18 9 -18 14 0 5
8 9 18 10 14 0 14 2 -3 9 -17 7 -17 9 -2 9 27 1 20 21 -8 21 -22 0 -25 -4 -25
-35z"/>
<path d="M411 113 c1 -21 3 -30 6 -20 4 17 6 17 23 2 17 -16 18 -15 17 17 -2
26 -7 34 -24 36 -21 3 -23 -1 -22 -35z"/>
<path d="M477 143 c-11 -10 -8 -51 3 -58 6 -3 10 1 10 9 0 9 8 16 18 17 14 0
14 2 -3 9 -17 7 -17 9 -2 9 9 1 17 6 17 11 0 11 -33 14 -43 3z"/>
<path d="M532 118 c2 -28 7 -33 28 -33 21 0 26 5 28 33 2 18 -1 32 -7 32 -6 0
-11 -13 -11 -30 0 -16 -4 -30 -10 -30 -5 0 -10 14 -10 30 0 17 -5 30 -11 30
-6 0 -9 -14 -7 -32z"/>
<path d="M600 115 c0 -32 3 -35 28 -34 16 1 20 3 10 6 -12 3 -18 14 -18 34 0
16 -4 29 -10 29 -5 0 -10 -16 -10 -35z"/>
<path d="M40 45 c0 -20 4 -26 18 -23 9 2 17 12 17 23 0 11 -8 21 -17 23 -14 3
-18 -3 -18 -23z m17 -7 c-3 -8 -6 -5 -6 6 -1 11 2 17 5 13 3 -3 4 -12 1 -19z"/>
<path d="M90 45 c0 -17 5 -25 18 -25 14 0 15 2 2 10 -13 9 -13 10 0 10 12 0
13 2 1 9 -11 7 -11 9 0 14 10 4 9 6 -3 6 -13 1 -18 -7 -18 -24z"/>
<path d="M134 48 c3 -24 27 -31 34 -10 2 6 -2 12 -10 12 -10 0 -9 3 2 10 12 8
11 10 -7 10 -18 0 -22 -5 -19 -22z"/>
<path d="M182 45 c0 -17 2 -22 5 -12 2 9 2 23 0 30 -3 6 -5 -1 -5 -18z"/>
<path d="M202 48 c5 -34 38 -37 38 -4 0 20 -5 26 -21 26 -15 0 -20 -5 -17 -22z
m25 -3 c0 -8 -4 -15 -9 -15 -4 0 -8 7 -8 15 0 8 4 15 8 15 5 0 9 -7 9 -15z"/>
<path d="M251 43 c0 -16 3 -22 6 -15 4 10 8 10 19 1 11 -9 14 -6 14 17 0 22
-3 26 -10 14 -6 -10 -10 -11 -10 -2 0 6 -4 12 -10 12 -5 0 -10 -12 -9 -27z"/>
<path d="M307 63 c-8 -18 -1 -38 16 -41 13 -3 17 3 17 22 0 24 -23 37 -33 19z"/>
<path d="M374 55 c-3 -8 -3 -19 1 -25 8 -13 35 -13 35 0 0 5 -7 7 -15 4 -10
-4 -15 0 -15 11 0 11 5 15 15 11 8 -3 15 -1 15 4 0 16 -30 12 -36 -5z"/>
<path d="M423 55 c-8 -23 4 -30 53 -30 38 0 44 3 44 20 0 14 -7 21 -20 21 -11
0 -20 -5 -20 -10 0 -6 -5 -5 -12 2 -17 17 -37 15 -45 -3z m27 -11 c0 -8 -4
-12 -10 -9 -5 3 -10 10 -10 16 0 5 5 9 10 9 6 0 10 -7 10 -16z"/>
<path d="M550 45 c0 -18 5 -25 20 -25 15 0 20 7 20 25 0 18 -5 25 -20 25 -15
0 -20 -7 -20 -25z"/>
<path d="M600 44 c0 -22 2 -25 15 -14 10 9 15 9 15 1 0 -6 4 -11 9 -11 4 0 6
11 3 25 -6 36 -42 35 -42 -1z"/>
</g>
</svg>
